<svg xmlns="http://www.w3.org/2000/svg" xmlns:xlink="http://www.w3.org/1999/xlink" version="1.1" id="Layer_13" x="0px" y="0px" width="697px" height="225px" viewBox="0 0 697 225" enable-background="new 0 0 697 225" xml:space="preserve">
  <g>
    <path fill="#7D7D7D" d="M248.6 161.7h20.7c-1.1 4.7-3.5 8.4-7.3 11.5 -4.3 3.5-9.7 5.3-16.1 5.3 -5.3 0-10.2-1.2-14.5-3.6 -4.4-2.4-7.9-5.7-10.3-9.9 -2.5-4.2-3.7-8.6-3.7-13.2 0-4.5 1.2-8.8 3.6-12.8 2.4-4 5.8-7.3 10.2-9.7 7.9-4.3 16.7-4.9 26-0.9 4.1 1.8 8 4.4 11.5 7.9l1.3 1.3 7.9-7.5 -1.5-1.4c-4.9-4.6-9.9-8-15.1-10.1 -5.2-2.1-10.7-3.2-16.6-3.2 -7.2 0-13.8 1.6-19.5 4.8 -5.8 3.2-10.4 7.7-13.7 13.4 -3.3 5.7-5 11.9-5 18.5 0 8.9 2.9 16.8 8.7 23.5 7.5 8.7 17.7 13.2 30.5 13.2 10.6 0 19.1-3.2 25.5-9.6 6.4-6.4 9.6-15 9.7-25.7l0-1.9h-32.4V161.7z"/>
    <path fill="#7D7D7D" d="M312.8 133c-8.1 0-14.9 3-20.2 8.9 -4.8 5.3-7.3 11.7-7.3 18.9 0 7.3 2.6 13.8 7.7 19.2 5.1 5.5 11.8 8.3 19.8 8.3 8 0 14.6-2.8 19.8-8.3 5.1-5.5 7.7-11.9 7.7-19.2 0-7.3-2.4-13.6-7.3-19C327.7 136 320.9 133 312.8 133zM312.8 143c4.7 0 8.7 1.7 12.1 5.2 3.4 3.5 5.1 7.7 5.1 12.7 0 3.2-0.8 6.2-2.3 9 -1.5 2.7-3.6 4.9-6.2 6.4 -2.6 1.5-5.5 2.2-8.7 2.2 -3.1 0-6-0.8-8.7-2.2 -2.6-1.5-4.7-3.6-6.2-6.4 -1.5-2.8-2.3-5.8-2.3-9 0-5 1.7-9.2 5.1-12.7C304.1 144.7 308.1 143 312.8 143z"/>
    <polygon fill="#7D7D7D" points="362.7 134.3 362.7 116.1 352.6 116.1 352.6 134.3 344 134.3 344 143.5 352.6 143.5 352.6 187 362.7 187 362.7 143.5 372.7 143.5 372.7 134.3 "/>
  </g>
  <g>
    <path fill="#8EC648" d="M401.5 146.2c-5.9-4.4-7.8-5.9-8.3-6.4 -1.4-1.4-2.4-2.7-2.9-3.8 -0.5-1.1-0.7-2.2-0.7-3.4 0-1.8 0.6-3.3 1.9-4.6 1.3-1.3 3-1.9 5.2-1.9 1.7 0 3.3 0.4 4.7 1.3 1.5 0.9 3.5 2.9 5.8 6l1.2 1.5 8.4-6.4 -1.1-1.5c-3.2-4.4-6.2-7.4-9.2-9.1 -3-1.7-6.3-2.6-9.7-2.6 -3.2 0-6.3 0.8-9.1 2.3 -2.8 1.5-5 3.7-6.6 6.3 -1.5 2.7-2.3 5.6-2.3 8.8 0 4 1.3 7.8 3.9 11.2 1.5 2 5 5.1 10.7 9.4 5.3 4 9 7.4 10.9 10.2 1.3 1.8 1.9 3.6 1.9 5.4 0 1.6-0.4 3.1-1.3 4.6 -0.8 1.4-2.1 2.6-3.7 3.4 -1.7 0.9-3.4 1.3-5.3 1.3 -4.4 0-8.5-3.3-12-9.9l-1-1.8 -8.9 5.4 0.9 1.6c2.9 5.3 6.2 9.1 9.7 11.5 3.6 2.3 7.6 3.5 12 3.5 5.7 0 10.6-2 14.6-5.8 4-3.9 6-8.6 6-13.9 0-3.7-1.2-7.4-3.5-11C411.5 154.5 407.4 150.6 401.5 146.2z"/>
    <path fill="#8EC648" d="M450.5 133c-8.1 0-14.9 3-20.2 8.9 -4.8 5.3-7.3 11.7-7.3 18.9 0 7.3 2.6 13.8 7.7 19.2 5.1 5.5 11.8 8.3 19.8 8.3 8 0 14.6-2.8 19.8-8.3 5.1-5.5 7.7-11.9 7.7-19.2 0-7.3-2.4-13.6-7.3-19C465.3 136 458.6 133 450.5 133zM450.5 143c4.7 0 8.7 1.7 12.1 5.2 3.4 3.5 5.1 7.7 5.1 12.7 0 3.2-0.8 6.2-2.3 9 -1.5 2.7-3.6 4.9-6.2 6.4 -2.6 1.5-5.5 2.2-8.7 2.2s-6-0.8-8.7-2.2c-2.6-1.5-4.7-3.6-6.2-6.4 -1.5-2.8-2.3-5.8-2.3-9 0-5 1.7-9.2 5.1-12.7C441.8 144.7 445.7 143 450.5 143z"/>
    <path fill="#8EC648" d="M527.7 170.8c-4.2 5.3-9.5 7.9-16.1 7.9 -3.6 0-6.8-0.8-9.7-2.4 -2.8-1.6-5.1-3.8-6.7-6.6 -1.6-2.8-2.5-5.9-2.5-9.1 0-5 1.7-9.1 5.3-12.6 3.6-3.5 8-5.2 13.5-5.2 6.9 0 12.2 2.6 16.1 7.8l1.1 1.4 8.1-5 -1-1.6c-1.6-2.7-3.6-4.9-5.8-6.6 -2.3-1.7-5-3.1-8.2-4.2 -3.2-1-6.5-1.6-10-1.6 -5.5 0-10.5 1.2-14.9 3.7 -4.5 2.4-8 5.9-10.6 10.2 -2.5 4.3-3.8 9.1-3.8 14.2 0 7.6 2.8 14.1 8.2 19.3 5.4 5.2 12.4 7.9 20.6 7.9 5.3 0 10.1-1 14.3-3.1 4.2-2.1 7.7-5.1 10.2-8.9l1.1-1.6 -8.1-5.3L527.7 170.8z"/>
    <path fill="#8EC648" d="M586.4 170.8c-4.2 5.3-9.5 7.9-16.1 7.9 -3.6 0-6.8-0.8-9.7-2.4 -2.8-1.6-5.1-3.8-6.7-6.6 -1.6-2.8-2.5-5.9-2.5-9.1 0-5 1.7-9.1 5.3-12.6 3.6-3.5 8-5.2 13.5-5.2 6.9 0 12.2 2.6 16.1 7.8l1.1 1.4 8.1-5 -1-1.6c-1.6-2.7-3.6-4.9-5.8-6.6 -2.3-1.7-5-3.1-8.2-4.2 -3.2-1-6.5-1.6-10-1.6 -5.5 0-10.5 1.2-14.9 3.7 -4.5 2.4-8 5.9-10.6 10.2 -2.5 4.3-3.8 9.1-3.8 14.2 0 7.6 2.8 14.1 8.2 19.3 5.4 5.2 12.4 7.9 20.6 7.9 5.3 0 10.1-1 14.3-3.1 4.2-2.1 7.7-5.1 10.2-8.9l1.1-1.6 -8.1-5.3L586.4 170.8z"/>
    <path fill="#8EC648" d="M654 161.1c-0.1-7.1-2-13.1-5.8-17.9 -5.3-6.8-12.6-10.2-21.5-10.2 -8.7 0-15.7 3.4-20.9 10 -4.1 5.2-6.1 11.2-6.1 17.8 0 7 2.4 13.4 7.2 19 4.9 5.6 11.6 8.5 20.2 8.5 3.8 0 7.3-0.6 10.4-1.8 3.1-1.2 5.9-2.9 8.3-5.2 2.4-2.2 4.6-5.2 6.4-8.8l0.9-1.7 -8.6-4.5 -0.9 1.6c-1.8 3-3.5 5.2-5 6.5 -1.5 1.3-3.3 2.3-5.4 3.1 -2.1 0.8-4.4 1.2-6.6 1.2 -4.7 0-8.5-1.6-11.6-4.9 -2.8-2.9-4.4-6.4-4.8-10.7h43.9L654 161.1zM611.4 153.8c1.1-2.9 2.6-5.2 4.3-6.8 3.1-2.8 6.7-4.1 11.1-4.1 2.6 0 5.1 0.6 7.5 1.7 2.4 1.1 4.3 2.5 5.7 4.3 1 1.3 1.9 2.9 2.6 4.9H611.4z"/>
    <path fill="#8EC648" d="M686.2 134.9c-2.3-1.3-4.5-1.9-6.5-1.9 -2.7 0-5.3 0.8-7.7 2.4 -1.1 0.7-2.1 1.5-3.1 2.6v-3.7h-10.3V187h10.3v-18.5c0-8.3 0.4-13.8 1.1-16.4 0.9-3.2 2.2-5.6 3.9-7.1 1.6-1.4 3.2-2.1 4.8-2.1 0.4 0 1.2 0.1 2.6 0.7l1.5 0.7 5.2-8.4L686.2 134.9z"/>
  </g>
  <g>
    <path fill="#8EC647" d="M84.6 71.4L76.9 66 8.6 128.7l108.5 87.5 67.8-74.6L152.7 119l-9.6-6.7c-3.9 2.4-8.6 3.5-13.1 3.2 -4-0.2-8-1.4-11.2-3.8 -3.2-2.3-5.3-5.4-6.2-8.6 -1-3.7-0.5-7.6 1.6-11.1l-9-6.3c-2.1 2.8-3.6 5.9-4.4 9.1 -2.2 9 1.1 18.7 9.8 25.1 8.9 6.5 21.1 7.8 31.7 4.5l26.3 18.7 -52.5 57 -91.7-72.7L84.6 71.4z"/>
    <path fill="#5FB146" d="M83.8 59.7l28.1 19.4 9 6.2c3.8-2.2 8.3-3.3 12.7-3.1 3.9 0.2 7.8 1.3 11 3.5 3.2 2.2 5.4 5.1 6.4 8.3 1.2 3.6 0.8 7.6-1.1 11.2l9.6 6.6c2-3 3.3-6.2 3.9-9.4 1.6-9.1-2.3-18.3-11.2-24.3 -8.7-5.8-20.2-7-30.3-3.9L98.5 58.4l46.2-42.9 90.2 55.6 -52.4 56.8 9 6.2 58.5-64.4L143.5 4.9 83.8 59.7z"/>
  </g>
  <path fill="#7D7D7D" d="M135.8 94.6c-1.3-0.9-2.9-1.4-4.6-1.4 -1.7 0-3.3 0.5-4.5 1.5 -1.3 1-2.1 2.5-2 4 0 1.6 0.9 3.2 2.3 4.2 1.3 1 3 1.5 4.7 1.5h0c1.8 0 3.4-0.6 4.6-1.5 1.3-1 2-2.5 1.9-4.1C138.2 97.2 137.3 95.7 135.8 94.6z"/>
  <g/>
  <g/>
  <g/>
  <g/>
  <g/>
  <g/>
</svg>
